<svg xmlns="http://www.w3.org/2000/svg" xmlns:v="https://svgstorm.com"
viewBox = "0 0 255 84"
width="255"
height="84">
<g fill="None" fill-opacity="0.0" stroke="#FDFDFE" stroke-opacity="1.00" stroke-width="0.3"><path d="
M 0.00 34.00 
C 2.95 27.13 5.02 19.61 10.75 13.75 C 16.49 7.90 22.26 4.86 30.02 2.02 C 37.79 -0.81 49.59 2.05 57.07 3.93 C 64.56 5.80 69.70 17.91 75.00 12.00
C 77.08 19.13 72.44 23.08 66.00 20.00
C 70.56 14.38 59.49 8.51 51.78 6.22 C 44.06 3.94 30.64 4.62 22.93 8.93 C 15.21 13.24 11.62 19.66 7.08 27.08 C 2.53 34.49 6.40 48.89 2.00 54.00
C 0.30 52.71 2.01 49.83 0.00 49.00
L 0.00 84.00
L 255.00 84.00
L 255.00 0.00
L 0.00 0.00
L 0.00 34.00
M 42.00 17.00 
C 43.03 22.65 38.93 28.43 39.00 34.00
C 43.52 35.84 48.11 37.39 53.00 38.00
C 48.45 47.76 39.17 55.06 33.00 64.00
C 32.00 65.16 32.22 67.48 30.00 67.00
C 30.95 66.13 30.54 64.32 32.00 64.00
C 32.50 57.28 38.19 51.38 40.00 45.00
C 35.91 44.38 32.19 42.38 28.00 42.00
C 31.26 32.91 37.22 24.98 41.00 16.00
C 41.31 15.14 42.05 14.15 43.00 14.00
C 42.89 15.00 43.47 16.73 42.00 17.00
M 128.00 26.00 
C 130.98 27.83 126.83 34.26 123.33 31.67 C 119.83 29.07 124.15 23.64 128.00 26.00
M 166.00 36.00 
C 169.34 37.04 176.45 32.45 178.75 38.25 C 181.05 44.04 179.60 48.89 180.00 55.00
C 178.33 55.00 176.67 55.00 175.00 55.00
C 172.13 53.19 174.98 45.91 174.00 43.00
C 171.88 38.91 168.13 38.88 166.00 43.00
C 165.08 45.73 167.87 53.52 165.00 55.00
C 164.43 55.29 160.57 55.29 160.00 55.00
C 157.62 53.78 159.01 43.63 159.00 41.00 C 158.99 38.37 157.63 28.22 160.00 27.00
C 160.57 26.71 164.43 26.71 165.00 27.00
C 166.54 27.80 166.54 34.35 166.00 36.00
M 207.00 55.00 
C 206.43 55.29 202.57 55.29 202.00 55.00
C 198.91 53.41 201.80 45.58 201.00 42.00 C 200.20 38.42 201.60 30.94 201.00 27.00
C 203.00 27.00 205.00 27.00 207.00 27.00
C 209.19 29.11 208.14 38.00 208.00 41.00 C 207.86 44.00 209.56 53.68 207.00 55.00
M 106.00 29.00 
C 106.00 36.00 106.00 43.00 106.00 50.00
C 110.33 50.00 114.67 50.00 119.00 50.00
C 120.04 59.48 105.93 53.19 100.00 55.00
C 102.53 47.00 94.09 28.39 106.00 29.00
M 81.00 35.00 
C 82.14 39.33 81.76 43.78 81.00 48.00
C 80.54 54.80 77.04 61.57 73.00 67.00
C 71.03 69.65 68.64 72.12 66.00 74.00
C 60.28 78.08 53.02 81.44 46.00 82.00
C 42.49 82.68 39.45 82.67 36.00 82.00
C 30.12 81.53 23.85 79.01 18.92 76.08 C 13.99 73.16 10.67 65.40 7.00 71.00
C 3.78 63.88 13.04 59.77 17.00 65.00
C 9.42 65.64 18.19 71.96 23.25 74.75 C 28.30 77.55 38.42 80.22 45.00 79.00 C 51.58 77.78 58.42 74.95 64.00 71.00
C 65.79 69.44 68.48 66.74 70.00 65.00
C 77.46 54.97 79.98 42.48 77.00 30.00
C 80.23 29.10 81.62 32.34 81.00 35.00
M 192.00 31.00 
C 192.95 31.67 192.28 37.95 197.00 35.00
C 198.10 38.89 195.85 40.97 192.00 40.00
C 192.07 43.79 190.42 53.76 197.00 50.00
C 200.05 55.98 191.55 56.37 187.77 53.23 C 183.99 50.09 189.02 40.06 183.00 40.00
C 181.01 34.91 187.26 35.71 186.00 31.00
C 187.88 29.56 190.14 29.69 192.00 31.00
M 123.00 55.00 
C 120.91 53.68 120.99 36.27 123.00 35.00
C 124.19 34.25 126.69 35.57 128.00 35.00
C 128.00 41.67 128.00 48.33 128.00 55.00
C 126.33 55.00 124.67 55.00 123.00 55.00
M 146.00 62.00 
C 143.19 62.85 141.72 62.67 139.00 62.00
C 133.65 60.68 132.07 56.43 137.23 56.79 C 142.39 57.14 148.48 59.80 148.00 52.00
C 141.23 57.22 128.51 51.25 132.33 41.33 C 136.15 31.41 147.52 37.52 154.00 35.00
C 152.88 43.99 158.20 59.71 146.00 62.00
M 221.00 48.00 
C 225.17 44.16 223.78 33.20 232.00 35.00
C 231.71 42.28 225.11 47.13 224.23 54.23 C 223.35 61.33 209.27 66.77 211.00 57.00
C 225.40 60.02 211.01 41.73 210.00 35.00
C 218.33 32.82 218.02 43.07 221.00 48.00 Z"/>
</g>
<g fill="None" fill-opacity="0.0" stroke="#C1D4FF" stroke-opacity="1.00" stroke-width="0.3"><path d="
M 0.00 34.00 
L 0.00 49.00
C 2.01 49.83 0.30 52.71 2.00 54.00
C 6.40 48.89 2.53 34.49 7.08 27.08 C 11.62 19.66 15.21 13.24 22.93 8.93 C 30.64 4.62 44.06 3.94 51.78 6.22 C 59.49 8.51 70.56 14.38 66.00 20.00
C 72.44 23.08 77.08 19.13 75.00 12.00
C 69.70 17.91 64.56 5.80 57.07 3.93 C 49.59 2.05 37.79 -0.81 30.02 2.02 C 22.26 4.86 16.49 7.90 10.75 13.75 C 5.02 19.61 2.95 27.13 0.00 34.00 Z"/>
</g>
<g fill="None" fill-opacity="0.0" stroke="#889FD2" stroke-opacity="1.00" stroke-width="0.3"><path d="
M 41.00 16.00 
C 41.11 15.91 41.94 16.65 42.00 17.00
C 43.47 16.73 42.89 15.00 43.00 14.00
C 42.05 14.15 41.31 15.14 41.00 16.00 Z"/>
</g>
<g fill="None" fill-opacity="0.0" stroke="#0C3BA3" stroke-opacity="1.00" stroke-width="0.3"><path d="
M 32.00 64.00 
C 32.28 63.75 33.00 64.00 33.00 64.00
C 39.17 55.06 48.45 47.76 53.00 38.00
C 48.11 37.39 43.52 35.84 39.00 34.00
C 38.93 28.43 43.03 22.65 42.00 17.00
C 41.94 16.65 41.11 15.91 41.00 16.00
C 37.22 24.98 31.26 32.91 28.00 42.00
C 32.19 42.38 35.91 44.38 40.00 45.00
C 38.19 51.38 32.50 57.28 32.00 64.00 Z"/>
</g>
<g fill="None" fill-opacity="0.0" stroke="#123EA5" stroke-opacity="1.00" stroke-width="0.3"><path d="
M 128.00 26.00 
C 124.15 23.64 119.83 29.07 123.33 31.67 C 126.83 34.26 130.98 27.83 128.00 26.00 Z"/>
</g>
<g fill="None" fill-opacity="0.0" stroke="#8EA5D4" stroke-opacity="1.00" stroke-width="0.3"><path d="
M 160.00 55.00 
C 160.00 45.67 160.00 36.33 160.00 27.00
C 157.63 28.22 158.99 38.37 159.00 41.00 C 159.01 43.63 157.62 53.78 160.00 55.00 Z"/>
</g>
<g fill="None" fill-opacity="0.0" stroke="#0534A0" stroke-opacity="1.00" stroke-width="0.3"><path d="
M 160.00 55.00 
C 160.57 55.29 164.43 55.29 165.00 55.00
C 165.20 50.94 164.29 46.31 166.00 43.00
C 168.13 38.88 171.88 38.91 174.00 43.00
C 175.72 46.33 174.78 50.97 175.00 55.00
C 176.67 55.00 178.33 55.00 180.00 55.00
C 179.60 48.89 181.05 44.04 178.75 38.25 C 176.45 32.45 169.34 37.04 166.00 36.00
C 164.32 35.48 165.19 30.25 165.00 27.00
C 164.43 26.71 160.57 26.71 160.00 27.00
C 160.00 36.33 160.00 45.67 160.00 55.00 Z"/>
</g>
<g fill="None" fill-opacity="0.0" stroke="#9AAED9" stroke-opacity="1.00" stroke-width="0.3"><path d="
M 166.00 36.00 
C 166.54 34.35 166.54 27.80 165.00 27.00
C 165.19 30.25 164.32 35.48 166.00 36.00 Z"/>
</g>
<g fill="None" fill-opacity="0.0" stroke="#6E8BC9" stroke-opacity="1.00" stroke-width="0.3"><path d="
M 202.00 55.00 
C 202.00 46.00 202.00 37.00 202.00 28.00
C 203.67 28.00 205.33 28.00 207.00 28.00
C 207.00 27.50 207.00 27.00 207.00 27.00
C 205.00 27.00 203.00 27.00 201.00 27.00
C 201.60 30.94 200.20 38.42 201.00 42.00 C 201.80 45.58 198.91 53.41 202.00 55.00 Z"/>
</g>
<g fill="None" fill-opacity="0.0" stroke="#B8C6E4" stroke-opacity="1.00" stroke-width="0.3"><path d="
M 207.00 28.00 
C 207.00 37.00 207.00 46.00 207.00 55.00
C 209.56 53.68 207.86 44.00 208.00 41.00 C 208.14 38.00 209.19 29.11 207.00 27.00
C 207.00 27.00 207.00 27.50 207.00 28.00 Z"/>
</g>
<g fill="None" fill-opacity="0.0" stroke="#00309E" stroke-opacity="1.00" stroke-width="0.3"><path d="
M 202.00 55.00 
C 202.57 55.29 206.43 55.29 207.00 55.00
C 207.00 46.00 207.00 37.00 207.00 28.00
C 205.33 28.00 203.67 28.00 202.00 28.00
C 202.00 37.00 202.00 46.00 202.00 55.00 Z"/>
</g>
<g fill="None" fill-opacity="0.0" stroke="#0738A2" stroke-opacity="1.00" stroke-width="0.3"><path d="
M 106.00 29.00 
C 94.09 28.39 102.53 47.00 100.00 55.00
C 105.93 53.19 120.04 59.48 119.00 50.00
C 114.67 50.00 110.33 50.00 106.00 50.00
C 106.00 43.00 106.00 36.00 106.00 29.00 Z"/>
</g>
<g fill="None" fill-opacity="0.0" stroke="#0D3AA3" stroke-opacity="1.00" stroke-width="0.3"><path d="
M 70.00 65.00 
C 68.27 67.33 66.28 69.30 64.00 71.00
C 58.42 74.95 51.58 77.78 45.00 79.00 C 38.42 80.22 28.30 77.55 23.25 74.75 C 18.19 71.96 9.42 65.64 17.00 65.00
C 13.04 59.77 3.78 63.88 7.00 71.00
C 10.67 65.40 13.99 73.16 18.92 76.08 C 23.85 79.01 30.12 81.53 36.00 82.00
C 39.19 82.25 42.81 82.25 46.00 82.00
C 53.02 81.44 60.28 78.08 66.00 74.00
C 68.12 72.23 71.22 69.04 73.00 67.00
C 77.04 61.57 80.54 54.80 81.00 48.00
C 81.28 43.95 81.55 39.02 81.00 35.00
C 81.62 32.34 80.23 29.10 77.00 30.00
C 79.98 42.48 77.46 54.97 70.00 65.00 Z"/>
</g>
<g fill="None" fill-opacity="0.0" stroke="#849CD1" stroke-opacity="1.00" stroke-width="0.3"><path d="
M 186.00 31.00 
C 188.00 31.00 190.00 31.00 192.00 31.00
C 190.14 29.69 187.88 29.56 186.00 31.00 Z"/>
</g>
<g fill="None" fill-opacity="0.0" stroke="#0F3DA4" stroke-opacity="1.00" stroke-width="0.3"><path d="
M 192.00 31.00 
C 190.00 31.00 188.00 31.00 186.00 31.00
C 187.26 35.71 181.01 34.91 183.00 40.00
C 189.02 40.06 183.99 50.09 187.77 53.23 C 191.55 56.37 200.05 55.98 197.00 50.00
C 190.42 53.76 192.07 43.79 192.00 40.00
C 195.85 40.97 198.10 38.89 197.00 35.00
C 192.28 37.95 192.95 31.67 192.00 31.00 Z"/>
</g>
<g fill="None" fill-opacity="0.0" stroke="#708CCA" stroke-opacity="1.00" stroke-width="0.3"><path d="
M 81.00 48.00 
C 81.76 43.78 82.14 39.33 81.00 35.00
C 81.55 39.02 81.28 43.95 81.00 48.00 Z"/>
</g>
<g fill="None" fill-opacity="0.0" stroke="#3960B5" stroke-opacity="1.00" stroke-width="0.3"><path d="
M 123.00 55.00 
C 123.00 48.33 123.00 41.67 123.00 35.00
C 120.99 36.27 120.91 53.68 123.00 55.00 Z"/>
</g>
<g fill="None" fill-opacity="0.0" stroke="#0334A0" stroke-opacity="1.00" stroke-width="0.3"><path d="
M 123.00 55.00 
C 124.67 55.00 126.33 55.00 128.00 55.00
C 128.00 48.33 128.00 41.67 128.00 35.00
C 126.69 35.57 124.19 34.25 123.00 35.00
C 123.00 41.67 123.00 48.33 123.00 55.00 Z"/>
</g>
<g fill="None" fill-opacity="0.0" stroke="#0A39A2" stroke-opacity="1.00" stroke-width="0.3"><path d="
M 139.00 62.00 
C 141.07 62.24 143.94 62.32 146.00 62.00
C 158.20 59.71 152.88 43.99 154.00 35.00
C 147.52 37.52 136.15 31.41 132.33 41.33 C 128.51 51.25 141.23 57.22 148.00 52.00
C 148.48 59.80 142.39 57.14 137.23 56.79 C 132.07 56.43 133.65 60.68 139.00 62.00
M 145.00 39.00 
C 151.25 40.68 147.39 51.75 141.00 49.00 C 134.60 46.24 139.38 37.49 145.00 39.00 Z"/>
</g>
<g fill="None" fill-opacity="0.0" stroke="#0C3AA3" stroke-opacity="1.00" stroke-width="0.3"><path d="
M 221.00 48.00 
C 218.02 43.07 218.33 32.82 210.00 35.00
C 211.01 41.73 225.40 60.02 211.00 57.00
C 209.27 66.77 223.35 61.33 224.23 54.23 C 225.11 47.13 231.71 42.28 232.00 35.00
C 223.78 33.20 225.17 44.16 221.00 48.00 Z"/>
</g>
<g fill="None" fill-opacity="0.0" stroke="#EFF2F9" stroke-opacity="1.00" stroke-width="0.3"><path d="
M 145.00 39.00 
C 139.38 37.49 134.60 46.24 141.00 49.00 C 147.39 51.75 151.25 40.68 145.00 39.00 Z"/>
</g>
<g fill="None" fill-opacity="0.0" stroke="#98ACD8" stroke-opacity="1.00" stroke-width="0.3"><path d="
M 165.00 55.00 
C 167.87 53.52 165.08 45.73 166.00 43.00
C 164.29 46.31 165.20 50.94 165.00 55.00 Z"/>
</g>
<g fill="None" fill-opacity="0.0" stroke="#456AB9" stroke-opacity="1.00" stroke-width="0.3"><path d="
M 175.00 55.00 
C 174.78 50.97 175.72 46.33 174.00 43.00
C 174.98 45.91 172.13 53.19 175.00 55.00 Z"/>
</g>
<g fill="None" fill-opacity="0.0" stroke="#8EA5D5" stroke-opacity="1.00" stroke-width="0.3"><path d="
M 146.00 62.00 
C 143.94 62.32 141.07 62.24 139.00 62.00
C 141.72 62.67 143.19 62.85 146.00 62.00 Z"/>
</g>
<g fill="None" fill-opacity="0.0" stroke="#6684C6" stroke-opacity="1.00" stroke-width="0.3"><path d="
M 33.00 64.00 
C 33.00 64.00 32.28 63.75 32.00 64.00
C 30.54 64.32 30.95 66.13 30.00 67.00
C 32.22 67.48 32.00 65.16 33.00 64.00 Z"/>
</g>
<g fill="None" fill-opacity="0.0" stroke="#8099CF" stroke-opacity="1.00" stroke-width="0.3"><path d="
M 64.00 71.00 
C 66.28 69.30 68.27 67.33 70.00 65.00
C 68.48 66.74 65.79 69.44 64.00 71.00 Z"/>
</g>
<g fill="None" fill-opacity="0.0" stroke="#7893CD" stroke-opacity="1.00" stroke-width="0.3"><path d="
M 66.00 74.00 
C 68.64 72.12 71.03 69.65 73.00 67.00
C 71.22 69.04 68.12 72.23 66.00 74.00 Z"/>
</g>
<g fill="None" fill-opacity="0.0" stroke="#A5B6DD" stroke-opacity="1.00" stroke-width="0.3"><path d="
M 46.00 82.00 
C 42.81 82.25 39.19 82.25 36.00 82.00
C 39.45 82.67 42.49 82.68 46.00 82.00 Z"/>
</g>
<g fill="#FDFDFE" fill-opacity="1.00" stroke="None">
<path d="
M 0.00 34.00 
C 2.95 27.13 5.02 19.61 10.75 13.75 C 16.49 7.90 22.26 4.86 30.02 2.02 C 37.79 -0.81 49.59 2.05 57.07 3.93 C 64.56 5.80 69.70 17.91 75.00 12.00
C 77.08 19.13 72.44 23.08 66.00 20.00
C 70.56 14.38 59.49 8.51 51.78 6.22 C 44.06 3.94 30.64 4.62 22.93 8.93 C 15.21 13.24 11.62 19.66 7.08 27.08 C 2.53 34.49 6.40 48.89 2.00 54.00
C 0.30 52.71 2.01 49.83 0.00 49.00
L 0.00 84.00
L 255.00 84.00
L 255.00 0.00
L 0.00 0.00
L 0.00 34.00
M 42.00 17.00 
C 43.03 22.65 38.93 28.43 39.00 34.00
C 43.52 35.84 48.11 37.39 53.00 38.00
C 48.45 47.76 39.17 55.06 33.00 64.00
C 32.00 65.16 32.22 67.48 30.00 67.00
C 30.95 66.13 30.54 64.32 32.00 64.00
C 32.50 57.28 38.19 51.38 40.00 45.00
C 35.91 44.38 32.19 42.38 28.00 42.00
C 31.26 32.91 37.22 24.98 41.00 16.00
C 41.31 15.14 42.05 14.15 43.00 14.00
C 42.89 15.00 43.47 16.73 42.00 17.00
M 128.00 26.00 
C 130.98 27.83 126.83 34.26 123.33 31.67 C 119.83 29.07 124.15 23.64 128.00 26.00
M 166.00 36.00 
C 169.34 37.04 176.45 32.45 178.75 38.25 C 181.05 44.04 179.60 48.89 180.00 55.00
C 178.33 55.00 176.67 55.00 175.00 55.00
C 172.13 53.19 174.98 45.91 174.00 43.00
C 171.88 38.91 168.13 38.88 166.00 43.00
C 165.08 45.73 167.87 53.52 165.00 55.00
C 164.43 55.29 160.57 55.29 160.00 55.00
C 157.62 53.78 159.01 43.63 159.00 41.00 C 158.99 38.37 157.63 28.22 160.00 27.00
C 160.57 26.71 164.43 26.71 165.00 27.00
C 166.54 27.80 166.54 34.35 166.00 36.00
M 207.00 55.00 
C 206.43 55.29 202.57 55.29 202.00 55.00
C 198.91 53.41 201.80 45.58 201.00 42.00 C 200.20 38.42 201.60 30.94 201.00 27.00
C 203.00 27.00 205.00 27.00 207.00 27.00
C 209.19 29.11 208.14 38.00 208.00 41.00 C 207.86 44.00 209.56 53.68 207.00 55.00
M 106.00 29.00 
C 106.00 36.00 106.00 43.00 106.00 50.00
C 110.33 50.00 114.67 50.00 119.00 50.00
C 120.04 59.48 105.93 53.19 100.00 55.00
C 102.53 47.00 94.09 28.39 106.00 29.00
M 81.00 35.00 
C 82.14 39.33 81.76 43.78 81.00 48.00
C 80.54 54.80 77.04 61.57 73.00 67.00
C 71.03 69.65 68.64 72.12 66.00 74.00
C 60.28 78.08 53.02 81.44 46.00 82.00
C 42.49 82.68 39.45 82.67 36.00 82.00
C 30.12 81.53 23.85 79.01 18.92 76.08 C 13.99 73.16 10.67 65.40 7.00 71.00
C 3.78 63.88 13.04 59.77 17.00 65.00
C 9.42 65.64 18.19 71.96 23.25 74.75 C 28.30 77.55 38.42 80.22 45.00 79.00 C 51.58 77.78 58.42 74.95 64.00 71.00
C 65.79 69.44 68.48 66.74 70.00 65.00
C 77.46 54.97 79.98 42.48 77.00 30.00
C 80.23 29.10 81.62 32.34 81.00 35.00
M 192.00 31.00 
C 192.95 31.67 192.28 37.95 197.00 35.00
C 198.10 38.89 195.85 40.97 192.00 40.00
C 192.07 43.79 190.42 53.76 197.00 50.00
C 200.05 55.98 191.55 56.37 187.77 53.23 C 183.99 50.09 189.02 40.06 183.00 40.00
C 181.01 34.91 187.26 35.71 186.00 31.00
C 187.88 29.56 190.14 29.69 192.00 31.00
M 123.00 55.00 
C 120.91 53.68 120.99 36.27 123.00 35.00
C 124.19 34.25 126.69 35.57 128.00 35.00
C 128.00 41.67 128.00 48.33 128.00 55.00
C 126.33 55.00 124.67 55.00 123.00 55.00
M 146.00 62.00 
C 143.19 62.85 141.72 62.67 139.00 62.00
C 133.65 60.68 132.07 56.43 137.23 56.79 C 142.39 57.14 148.48 59.80 148.00 52.00
C 141.23 57.22 128.51 51.25 132.33 41.33 C 136.15 31.41 147.52 37.52 154.00 35.00
C 152.88 43.99 158.20 59.71 146.00 62.00
M 221.00 48.00 
C 225.17 44.16 223.78 33.20 232.00 35.00
C 231.71 42.28 225.11 47.13 224.23 54.23 C 223.35 61.33 209.27 66.77 211.00 57.00
C 225.40 60.02 211.01 41.73 210.00 35.00
C 218.33 32.82 218.02 43.07 221.00 48.00 Z"/>
</g>
<g fill="#C1D4FF" fill-opacity="1.00" stroke="None">
<path d="
M 0.00 34.00 
L 0.00 49.00
C 2.01 49.83 0.30 52.71 2.00 54.00
C 6.40 48.89 2.53 34.49 7.08 27.08 C 11.62 19.66 15.21 13.24 22.93 8.93 C 30.64 4.62 44.06 3.94 51.78 6.22 C 59.49 8.51 70.56 14.38 66.00 20.00
C 72.44 23.08 77.08 19.13 75.00 12.00
C 69.70 17.91 64.56 5.80 57.07 3.93 C 49.59 2.05 37.79 -0.81 30.02 2.02 C 22.26 4.86 16.49 7.90 10.75 13.75 C 5.02 19.61 2.95 27.13 0.00 34.00 Z"/>
</g>
<g fill="#889FD2" fill-opacity="1.00" stroke="None">
<path d="
M 41.00 16.00 
C 41.11 15.91 41.94 16.65 42.00 17.00
C 43.47 16.73 42.89 15.00 43.00 14.00
C 42.05 14.15 41.31 15.14 41.00 16.00 Z"/>
</g>
<g fill="#0C3BA3" fill-opacity="1.00" stroke="None">
<path d="
M 32.00 64.00 
C 32.28 63.75 33.00 64.00 33.00 64.00
C 39.17 55.06 48.45 47.76 53.00 38.00
C 48.11 37.39 43.52 35.84 39.00 34.00
C 38.93 28.43 43.03 22.65 42.00 17.00
C 41.94 16.65 41.11 15.91 41.00 16.00
C 37.22 24.98 31.26 32.91 28.00 42.00
C 32.19 42.38 35.91 44.38 40.00 45.00
C 38.19 51.38 32.50 57.28 32.00 64.00 Z"/>
</g>
<g fill="#123EA5" fill-opacity="1.00" stroke="None">
<path d="
M 128.00 26.00 
C 124.15 23.64 119.83 29.07 123.33 31.67 C 126.83 34.26 130.98 27.83 128.00 26.00 Z"/>
</g>
<g fill="#8EA5D4" fill-opacity="1.00" stroke="None">
<path d="
M 160.00 55.00 
C 160.00 45.67 160.00 36.33 160.00 27.00
C 157.63 28.22 158.99 38.37 159.00 41.00 C 159.01 43.63 157.62 53.78 160.00 55.00 Z"/>
</g>
<g fill="#0534A0" fill-opacity="1.00" stroke="None">
<path d="
M 160.00 55.00 
C 160.57 55.29 164.43 55.29 165.00 55.00
C 165.20 50.94 164.29 46.31 166.00 43.00
C 168.13 38.88 171.88 38.91 174.00 43.00
C 175.72 46.33 174.78 50.97 175.00 55.00
C 176.67 55.00 178.33 55.00 180.00 55.00
C 179.60 48.89 181.05 44.04 178.75 38.25 C 176.45 32.45 169.34 37.04 166.00 36.00
C 164.32 35.48 165.19 30.25 165.00 27.00
C 164.43 26.71 160.57 26.71 160.00 27.00
C 160.00 36.33 160.00 45.67 160.00 55.00 Z"/>
</g>
<g fill="#9AAED9" fill-opacity="1.00" stroke="None">
<path d="
M 166.00 36.00 
C 166.54 34.35 166.54 27.80 165.00 27.00
C 165.19 30.25 164.32 35.48 166.00 36.00 Z"/>
</g>
<g fill="#6E8BC9" fill-opacity="1.00" stroke="None">
<path d="
M 202.00 55.00 
C 202.00 46.00 202.00 37.00 202.00 28.00
C 203.67 28.00 205.33 28.00 207.00 28.00
C 207.00 27.50 207.00 27.00 207.00 27.00
C 205.00 27.00 203.00 27.00 201.00 27.00
C 201.60 30.94 200.20 38.42 201.00 42.00 C 201.80 45.58 198.91 53.41 202.00 55.00 Z"/>
</g>
<g fill="#B8C6E4" fill-opacity="1.00" stroke="None">
<path d="
M 207.00 28.00 
C 207.00 37.00 207.00 46.00 207.00 55.00
C 209.56 53.68 207.86 44.00 208.00 41.00 C 208.14 38.00 209.19 29.11 207.00 27.00
C 207.00 27.00 207.00 27.50 207.00 28.00 Z"/>
</g>
<g fill="#00309E" fill-opacity="1.00" stroke="None">
<path d="
M 202.00 55.00 
C 202.57 55.29 206.43 55.29 207.00 55.00
C 207.00 46.00 207.00 37.00 207.00 28.00
C 205.33 28.00 203.67 28.00 202.00 28.00
C 202.00 37.00 202.00 46.00 202.00 55.00 Z"/>
</g>
<g fill="#0738A2" fill-opacity="1.00" stroke="None">
<path d="
M 106.00 29.00 
C 94.09 28.39 102.53 47.00 100.00 55.00
C 105.93 53.19 120.04 59.48 119.00 50.00
C 114.67 50.00 110.33 50.00 106.00 50.00
C 106.00 43.00 106.00 36.00 106.00 29.00 Z"/>
</g>
<g fill="#0D3AA3" fill-opacity="1.00" stroke="None">
<path d="
M 70.00 65.00 
C 68.27 67.33 66.28 69.30 64.00 71.00
C 58.42 74.95 51.58 77.78 45.00 79.00 C 38.42 80.22 28.30 77.55 23.25 74.75 C 18.19 71.96 9.42 65.64 17.00 65.00
C 13.04 59.77 3.78 63.88 7.00 71.00
C 10.67 65.40 13.99 73.16 18.92 76.08 C 23.85 79.01 30.12 81.53 36.00 82.00
C 39.19 82.25 42.81 82.25 46.00 82.00
C 53.02 81.44 60.28 78.08 66.00 74.00
C 68.12 72.23 71.22 69.04 73.00 67.00
C 77.04 61.57 80.54 54.80 81.00 48.00
C 81.28 43.95 81.55 39.02 81.00 35.00
C 81.62 32.34 80.23 29.10 77.00 30.00
C 79.98 42.48 77.46 54.97 70.00 65.00 Z"/>
</g>
<g fill="#849CD1" fill-opacity="1.00" stroke="None">
<path d="
M 186.00 31.00 
C 188.00 31.00 190.00 31.00 192.00 31.00
C 190.14 29.69 187.88 29.56 186.00 31.00 Z"/>
</g>
<g fill="#0F3DA4" fill-opacity="1.00" stroke="None">
<path d="
M 192.00 31.00 
C 190.00 31.00 188.00 31.00 186.00 31.00
C 187.26 35.71 181.01 34.91 183.00 40.00
C 189.02 40.06 183.99 50.09 187.77 53.23 C 191.55 56.37 200.05 55.98 197.00 50.00
C 190.42 53.76 192.07 43.79 192.00 40.00
C 195.85 40.97 198.10 38.89 197.00 35.00
C 192.28 37.95 192.95 31.67 192.00 31.00 Z"/>
</g>
<g fill="#708CCA" fill-opacity="1.00" stroke="None">
<path d="
M 81.00 48.00 
C 81.76 43.78 82.14 39.33 81.00 35.00
C 81.55 39.02 81.28 43.95 81.00 48.00 Z"/>
</g>
<g fill="#3960B5" fill-opacity="1.00" stroke="None">
<path d="
M 123.00 55.00 
C 123.00 48.33 123.00 41.67 123.00 35.00
C 120.99 36.27 120.91 53.68 123.00 55.00 Z"/>
</g>
<g fill="#0334A0" fill-opacity="1.00" stroke="None">
<path d="
M 123.00 55.00 
C 124.67 55.00 126.33 55.00 128.00 55.00
C 128.00 48.33 128.00 41.67 128.00 35.00
C 126.69 35.57 124.19 34.25 123.00 35.00
C 123.00 41.67 123.00 48.33 123.00 55.00 Z"/>
</g>
<g fill="#0A39A2" fill-opacity="1.00" stroke="None">
<path d="
M 139.00 62.00 
C 141.07 62.24 143.94 62.32 146.00 62.00
C 158.20 59.71 152.88 43.99 154.00 35.00
C 147.52 37.52 136.15 31.41 132.33 41.33 C 128.51 51.25 141.23 57.22 148.00 52.00
C 148.48 59.80 142.39 57.14 137.23 56.79 C 132.07 56.43 133.65 60.68 139.00 62.00
M 145.00 39.00 
C 151.25 40.68 147.39 51.75 141.00 49.00 C 134.60 46.24 139.38 37.49 145.00 39.00 Z"/>
</g>
<g fill="#0C3AA3" fill-opacity="1.00" stroke="None">
<path d="
M 221.00 48.00 
C 218.02 43.07 218.33 32.82 210.00 35.00
C 211.01 41.73 225.40 60.02 211.00 57.00
C 209.27 66.77 223.35 61.33 224.23 54.23 C 225.11 47.13 231.71 42.28 232.00 35.00
C 223.78 33.20 225.17 44.16 221.00 48.00 Z"/>
</g>
<g fill="#EFF2F9" fill-opacity="1.00" stroke="None">
<path d="
M 145.00 39.00 
C 139.38 37.49 134.60 46.24 141.00 49.00 C 147.39 51.75 151.25 40.68 145.00 39.00 Z"/>
</g>
<g fill="#98ACD8" fill-opacity="1.00" stroke="None">
<path d="
M 165.00 55.00 
C 167.87 53.52 165.08 45.73 166.00 43.00
C 164.29 46.31 165.20 50.94 165.00 55.00 Z"/>
</g>
<g fill="#456AB9" fill-opacity="1.00" stroke="None">
<path d="
M 175.00 55.00 
C 174.78 50.97 175.72 46.33 174.00 43.00
C 174.98 45.91 172.13 53.19 175.00 55.00 Z"/>
</g>
<g fill="#8EA5D5" fill-opacity="1.00" stroke="None">
<path d="
M 146.00 62.00 
C 143.94 62.32 141.07 62.24 139.00 62.00
C 141.72 62.67 143.19 62.85 146.00 62.00 Z"/>
</g>
<g fill="#6684C6" fill-opacity="1.00" stroke="None">
<path d="
M 33.00 64.00 
C 33.00 64.00 32.28 63.75 32.00 64.00
C 30.54 64.32 30.95 66.13 30.00 67.00
C 32.22 67.48 32.00 65.16 33.00 64.00 Z"/>
</g>
<g fill="#8099CF" fill-opacity="1.00" stroke="None">
<path d="
M 64.00 71.00 
C 66.28 69.30 68.27 67.33 70.00 65.00
C 68.48 66.74 65.79 69.44 64.00 71.00 Z"/>
</g>
<g fill="#7893CD" fill-opacity="1.00" stroke="None">
<path d="
M 66.00 74.00 
C 68.64 72.12 71.03 69.65 73.00 67.00
C 71.22 69.04 68.12 72.23 66.00 74.00 Z"/>
</g>
<g fill="#A5B6DD" fill-opacity="1.00" stroke="None">
<path d="
M 46.00 82.00 
C 42.81 82.25 39.19 82.25 36.00 82.00
C 39.45 82.67 42.49 82.68 46.00 82.00 Z"/>
</g>
</svg>